<svg width="329" height="104" viewBox="0 0 329 104" fill="none" xmlns="http://www.w3.org/2000/svg">
<path fill-rule="evenodd" clip-rule="evenodd" d="M300.458 130.016L238.282 116.839L163.323 169.31L151.734 164.803L223.987 114.066L159.454 99.5669L119.036 130.834L160.038 142.005L154.928 146.521L114.283 135.469L107.746 140.698L95.1126 137.638L145.193 97.1899L92.545 85.1866L14.7151 144.055L0.546814 142.15L78.4025 82.8097L35.143 75.085L46.1504 66.7466L90.2869 75.2038L129.624 49.771L77.3549 37.9061L88.4655 30.8142L140.915 42.403L174.072 21.2487L104.365 4.75868L112.236 -0.68009L182.797 15.35L225.835 -17.374L237.432 -14.1907L154.621 45.3785L172.796 49.4443L235.637 3.51375L244.936 4.45519L182.368 51.3362L208.602 56.8028L290.887 -2.5709L302.465 -0.0925808L230.538 53.8699L328.221 43.1083L319.612 60.4924L249.744 108.671L312.193 121.298L300.458 130.016ZM272.177 81.2819L235.792 106.311L170.357 92.395L209.253 67.6158L272.177 81.2819ZM157.672 89.7032L103.835 78.2941L143.054 52.6237L195.702 64.5081L157.672 89.7032ZM283.353 72.7442L227.889 60.9891L314.81 51.552L283.353 72.7442Z" fill="url(#paint0_radial_2704_3080)"/>
<path d="M287.627 122.832L241.307 112.581C239.388 112.157 238.9 109.648 240.519 108.535L279.192 81.9474C280.806 80.8381 280.327 78.3395 278.418 77.9046L146.531 47.8595C144.56 47.4105 144.138 44.7898 145.869 43.7448L181.006 22.5298C182.731 21.4881 182.319 18.877 180.356 18.418L113.734 2.8335" stroke="url(#paint1_linear_2704_3080)" stroke-width="3.53129"/>
<circle cx="285.664" cy="99.5419" r="9.08343" fill="#D0A600"/>
<path d="M285.663 90.4595C287.515 90.4595 289.236 91.0151 290.672 91.9663C291.18 93.0993 291.465 94.3543 291.465 95.6763C291.465 100.693 287.398 104.759 282.382 104.759C280.53 104.759 278.808 104.203 277.372 103.251C276.865 102.119 276.58 100.864 276.58 99.5425C276.58 94.5262 280.647 90.4597 285.663 90.4595Z" fill="#F9DC01"/>
<path d="M180.15 44.7284L192.769 58.7116C193.281 59.2791 192.821 60.179 192.061 60.0969L167.718 57.4675C166.879 57.3769 166.692 56.2399 167.457 55.8848L177.195 51.3665C177.439 51.2532 177.613 51.0288 177.663 50.7642L178.714 45.1333C178.84 44.4558 179.688 44.2167 180.15 44.7284Z" fill="#1E1E1E" fill-opacity="0.9"/>
<path d="M166.991 48.5075V43.4146L192.897 46.0947V50.5283C192.897 51.0153 192.481 51.3983 191.995 51.3578L167.755 49.337C167.323 49.301 166.991 48.9404 166.991 48.5075Z" fill="#295F8F"/>
<path d="M180.15 31.4139L192.769 45.3972C193.281 45.9647 192.821 46.8645 192.061 46.7824L167.718 44.153C166.879 44.0624 166.692 42.9254 167.457 42.5704L177.195 38.0521C177.439 37.9388 177.613 37.7144 177.663 37.4498L178.714 31.8188C178.84 31.1413 179.688 30.9022 180.15 31.4139Z" fill="#2CA4F6" fill-opacity="0.97"/>
<defs>
<radialGradient id="paint0_radial_2704_3080" cx="0" cy="0" r="1" gradientUnits="userSpaceOnUse" gradientTransform="translate(181.682 83.2823) rotate(90) scale(82.7177 173.732)">
<stop stop-color="#749BFF"/>
<stop offset="0.87" stop-color="#052B74" stop-opacity="0"/>
</radialGradient>
<linearGradient id="paint1_linear_2704_3080" x1="113.734" y1="2.8335" x2="284.932" y2="122.832" gradientUnits="userSpaceOnUse">
<stop stop-color="#FFF01C" stop-opacity="0"/>
<stop offset="0.495" stop-color="#FFEE0E"/>
<stop offset="1" stop-color="#FFF01C" stop-opacity="0"/>
</linearGradient>
</defs>
</svg>
